<mxfile host="Electron" agent="Mozilla/5.0 (Windows NT 10.0; Win64; x64) AppleWebKit/537.36 (KHTML, like Gecko) draw.io/24.7.8 Chrome/128.0.6613.36 Electron/32.0.1 Safari/537.36" version="24.7.8">
  <diagram name="Architecture" id="tJ92FxvuIYLyJpPmMOwx">
    <mxGraphModel dx="780" dy="496" grid="1" gridSize="10" guides="1" tooltips="1" connect="1" arrows="1" fold="1" page="1" pageScale="1" pageWidth="850" pageHeight="1100" math="0" shadow="0">
      <root>
        <mxCell id="0" />
        <mxCell id="1" parent="0" />
        <mxCell id="9ATQHFXJwovSWlaFd1BJ-35" value="" style="group;movable=1;resizable=1;rotatable=1;deletable=1;editable=1;locked=0;connectable=1;" parent="1" vertex="1" connectable="0">
          <mxGeometry x="250" y="550" width="650" height="350" as="geometry" />
        </mxCell>
        <mxCell id="9ATQHFXJwovSWlaFd1BJ-5" value="Ungrammar Language Service" style="shape=module;align=left;spacingLeft=20;align=center;verticalAlign=top;whiteSpace=wrap;html=1;" parent="9ATQHFXJwovSWlaFd1BJ-35" vertex="1">
          <mxGeometry width="650" height="350" as="geometry" />
        </mxCell>
        <mxCell id="9ATQHFXJwovSWlaFd1BJ-2" value="&lt;b&gt;Annotation Service&lt;/b&gt;" style="html=1;dropTarget=0;whiteSpace=wrap;" parent="9ATQHFXJwovSWlaFd1BJ-35" vertex="1">
          <mxGeometry x="30" y="50" width="130" height="80" as="geometry" />
        </mxCell>
        <mxCell id="9ATQHFXJwovSWlaFd1BJ-3" value="" style="shape=module;jettyWidth=8;jettyHeight=4;" parent="9ATQHFXJwovSWlaFd1BJ-2" vertex="1">
          <mxGeometry x="1" width="20" height="20" relative="1" as="geometry">
            <mxPoint x="-27" y="7" as="offset" />
          </mxGeometry>
        </mxCell>
        <mxCell id="9ATQHFXJwovSWlaFd1BJ-7" value="&lt;b&gt;Hover Service&lt;/b&gt;" style="html=1;dropTarget=0;whiteSpace=wrap;" parent="9ATQHFXJwovSWlaFd1BJ-35" vertex="1">
          <mxGeometry x="180" y="50" width="105" height="80" as="geometry" />
        </mxCell>
        <mxCell id="9ATQHFXJwovSWlaFd1BJ-8" value="" style="shape=module;jettyWidth=8;jettyHeight=4;" parent="9ATQHFXJwovSWlaFd1BJ-7" vertex="1">
          <mxGeometry x="1" width="20" height="20" relative="1" as="geometry">
            <mxPoint x="-27" y="7" as="offset" />
          </mxGeometry>
        </mxCell>
        <mxCell id="9ATQHFXJwovSWlaFd1BJ-9" value="&lt;b&gt;Completion Service&lt;/b&gt;" style="html=1;dropTarget=0;whiteSpace=wrap;" parent="9ATQHFXJwovSWlaFd1BJ-35" vertex="1">
          <mxGeometry x="310" y="50" width="135" height="80" as="geometry" />
        </mxCell>
        <mxCell id="9ATQHFXJwovSWlaFd1BJ-10" value="" style="shape=module;jettyWidth=8;jettyHeight=4;" parent="9ATQHFXJwovSWlaFd1BJ-9" vertex="1">
          <mxGeometry x="1" width="20" height="20" relative="1" as="geometry">
            <mxPoint x="-27" y="7" as="offset" />
          </mxGeometry>
        </mxCell>
        <mxCell id="9ATQHFXJwovSWlaFd1BJ-19" value="&lt;b&gt;Code Action Service&lt;/b&gt;" style="html=1;dropTarget=0;whiteSpace=wrap;" parent="9ATQHFXJwovSWlaFd1BJ-35" vertex="1">
          <mxGeometry x="470" y="50" width="140" height="80" as="geometry" />
        </mxCell>
        <mxCell id="9ATQHFXJwovSWlaFd1BJ-20" value="" style="shape=module;jettyWidth=8;jettyHeight=4;" parent="9ATQHFXJwovSWlaFd1BJ-19" vertex="1">
          <mxGeometry x="1" width="20" height="20" relative="1" as="geometry">
            <mxPoint x="-27" y="7" as="offset" />
          </mxGeometry>
        </mxCell>
        <mxCell id="9ATQHFXJwovSWlaFd1BJ-21" value="&lt;b&gt;Format Service&lt;/b&gt;" style="html=1;dropTarget=0;whiteSpace=wrap;" parent="9ATQHFXJwovSWlaFd1BJ-35" vertex="1">
          <mxGeometry x="30" y="142.5" width="110" height="80" as="geometry" />
        </mxCell>
        <mxCell id="9ATQHFXJwovSWlaFd1BJ-22" value="" style="shape=module;jettyWidth=8;jettyHeight=4;" parent="9ATQHFXJwovSWlaFd1BJ-21" vertex="1">
          <mxGeometry x="1" width="20" height="20" relative="1" as="geometry">
            <mxPoint x="-27" y="7" as="offset" />
          </mxGeometry>
        </mxCell>
        <mxCell id="9ATQHFXJwovSWlaFd1BJ-23" value="&lt;b&gt;Validation Service&lt;/b&gt;" style="html=1;dropTarget=0;whiteSpace=wrap;" parent="9ATQHFXJwovSWlaFd1BJ-35" vertex="1">
          <mxGeometry x="150" y="142.5" width="120" height="75" as="geometry" />
        </mxCell>
        <mxCell id="9ATQHFXJwovSWlaFd1BJ-24" value="" style="shape=module;jettyWidth=8;jettyHeight=4;" parent="9ATQHFXJwovSWlaFd1BJ-23" vertex="1">
          <mxGeometry x="1" width="20" height="20" relative="1" as="geometry">
            <mxPoint x="-27" y="7" as="offset" />
          </mxGeometry>
        </mxCell>
        <mxCell id="9ATQHFXJwovSWlaFd1BJ-25" value="&lt;b&gt;Highlight Semantic Service&lt;/b&gt;" style="html=1;dropTarget=0;whiteSpace=wrap;" parent="9ATQHFXJwovSWlaFd1BJ-35" vertex="1">
          <mxGeometry x="285" y="142.5" width="170" height="75" as="geometry" />
        </mxCell>
        <mxCell id="9ATQHFXJwovSWlaFd1BJ-26" value="" style="shape=module;jettyWidth=8;jettyHeight=4;" parent="9ATQHFXJwovSWlaFd1BJ-25" vertex="1">
          <mxGeometry x="1" width="20" height="20" relative="1" as="geometry">
            <mxPoint x="-27" y="7" as="offset" />
          </mxGeometry>
        </mxCell>
        <mxCell id="9ATQHFXJwovSWlaFd1BJ-27" value="&lt;b&gt;Highlight Related Service&lt;/b&gt;" style="html=1;dropTarget=0;whiteSpace=wrap;" parent="9ATQHFXJwovSWlaFd1BJ-35" vertex="1">
          <mxGeometry x="470" y="142.5" width="160" height="75" as="geometry" />
        </mxCell>
        <mxCell id="9ATQHFXJwovSWlaFd1BJ-28" value="" style="shape=module;jettyWidth=8;jettyHeight=4;" parent="9ATQHFXJwovSWlaFd1BJ-27" vertex="1">
          <mxGeometry x="1" width="20" height="20" relative="1" as="geometry">
            <mxPoint x="-27" y="7" as="offset" />
          </mxGeometry>
        </mxCell>
        <mxCell id="9ATQHFXJwovSWlaFd1BJ-29" value="&lt;b&gt;Folding Service&lt;/b&gt;" style="html=1;dropTarget=0;whiteSpace=wrap;" parent="9ATQHFXJwovSWlaFd1BJ-35" vertex="1">
          <mxGeometry x="30" y="240" width="110" height="80" as="geometry" />
        </mxCell>
        <mxCell id="9ATQHFXJwovSWlaFd1BJ-30" value="" style="shape=module;jettyWidth=8;jettyHeight=4;" parent="9ATQHFXJwovSWlaFd1BJ-29" vertex="1">
          <mxGeometry x="1" width="20" height="20" relative="1" as="geometry">
            <mxPoint x="-27" y="7" as="offset" />
          </mxGeometry>
        </mxCell>
        <mxCell id="9ATQHFXJwovSWlaFd1BJ-31" value="&lt;b&gt;Definition Service&lt;/b&gt;" style="html=1;dropTarget=0;whiteSpace=wrap;" parent="9ATQHFXJwovSWlaFd1BJ-35" vertex="1">
          <mxGeometry x="155" y="240" width="110" height="80" as="geometry" />
        </mxCell>
        <mxCell id="9ATQHFXJwovSWlaFd1BJ-32" value="" style="shape=module;jettyWidth=8;jettyHeight=4;" parent="9ATQHFXJwovSWlaFd1BJ-31" vertex="1">
          <mxGeometry x="1" width="20" height="20" relative="1" as="geometry">
            <mxPoint x="-27" y="7" as="offset" />
          </mxGeometry>
        </mxCell>
        <mxCell id="9ATQHFXJwovSWlaFd1BJ-33" value="&lt;b&gt;Reference Service&lt;/b&gt;" style="html=1;dropTarget=0;whiteSpace=wrap;" parent="9ATQHFXJwovSWlaFd1BJ-35" vertex="1">
          <mxGeometry x="285" y="240" width="125" height="80" as="geometry" />
        </mxCell>
        <mxCell id="9ATQHFXJwovSWlaFd1BJ-34" value="" style="shape=module;jettyWidth=8;jettyHeight=4;" parent="9ATQHFXJwovSWlaFd1BJ-33" vertex="1">
          <mxGeometry x="1" width="20" height="20" relative="1" as="geometry">
            <mxPoint x="-27" y="7" as="offset" />
          </mxGeometry>
        </mxCell>
        <mxCell id="9ATQHFXJwovSWlaFd1BJ-39" value="" style="group;movable=1;resizable=1;rotatable=1;deletable=1;editable=1;locked=0;connectable=1;" parent="1" vertex="1" connectable="0">
          <mxGeometry x="450" y="340" width="250" height="140" as="geometry" />
        </mxCell>
        <mxCell id="9ATQHFXJwovSWlaFd1BJ-36" value="Ungrammar Language Server" style="shape=module;align=left;spacingLeft=20;align=center;verticalAlign=top;whiteSpace=wrap;html=1;" parent="9ATQHFXJwovSWlaFd1BJ-39" vertex="1">
          <mxGeometry width="250" height="140" as="geometry" />
        </mxCell>
        <mxCell id="9ATQHFXJwovSWlaFd1BJ-37" value="&lt;b&gt;JSON-RPC Service&lt;/b&gt;" style="html=1;dropTarget=0;whiteSpace=wrap;" parent="9ATQHFXJwovSWlaFd1BJ-39" vertex="1">
          <mxGeometry x="60" y="40" width="137.5" height="80" as="geometry" />
        </mxCell>
        <mxCell id="9ATQHFXJwovSWlaFd1BJ-38" value="" style="shape=module;jettyWidth=8;jettyHeight=4;" parent="9ATQHFXJwovSWlaFd1BJ-37" vertex="1">
          <mxGeometry x="1" width="20" height="20" relative="1" as="geometry">
            <mxPoint x="-27" y="7" as="offset" />
          </mxGeometry>
        </mxCell>
        <mxCell id="9ATQHFXJwovSWlaFd1BJ-43" value="" style="group" parent="1" vertex="1" connectable="0">
          <mxGeometry x="450" y="130" width="250" height="140" as="geometry" />
        </mxCell>
        <mxCell id="9ATQHFXJwovSWlaFd1BJ-40" value="Ungrammar VS Code" style="shape=module;align=left;spacingLeft=20;align=center;verticalAlign=top;whiteSpace=wrap;html=1;" parent="9ATQHFXJwovSWlaFd1BJ-43" vertex="1">
          <mxGeometry width="250" height="140" as="geometry" />
        </mxCell>
        <mxCell id="9ATQHFXJwovSWlaFd1BJ-41" value="&lt;b&gt;VS Code Client Service&lt;/b&gt;" style="html=1;dropTarget=0;whiteSpace=wrap;" parent="9ATQHFXJwovSWlaFd1BJ-43" vertex="1">
          <mxGeometry x="55" y="40" width="150" height="80" as="geometry" />
        </mxCell>
        <mxCell id="9ATQHFXJwovSWlaFd1BJ-42" value="" style="shape=module;jettyWidth=8;jettyHeight=4;" parent="9ATQHFXJwovSWlaFd1BJ-41" vertex="1">
          <mxGeometry x="1" width="20" height="20" relative="1" as="geometry">
            <mxPoint x="-27" y="7" as="offset" />
          </mxGeometry>
        </mxCell>
        <mxCell id="9ATQHFXJwovSWlaFd1BJ-46" value="&lt;div&gt;&amp;lt;external&amp;gt;&lt;/div&gt;&lt;b&gt;Monaco Editor&lt;/b&gt;" style="html=1;dropTarget=0;whiteSpace=wrap;" parent="1" vertex="1">
          <mxGeometry x="210" y="409.9971428571429" width="150" height="85.71428571428571" as="geometry" />
        </mxCell>
        <mxCell id="9ATQHFXJwovSWlaFd1BJ-47" value="" style="shape=module;jettyWidth=8;jettyHeight=4;" parent="9ATQHFXJwovSWlaFd1BJ-46" vertex="1">
          <mxGeometry x="1" width="20" height="20" relative="1" as="geometry">
            <mxPoint x="-27" y="7" as="offset" />
          </mxGeometry>
        </mxCell>
        <mxCell id="9ATQHFXJwovSWlaFd1BJ-57" style="edgeStyle=orthogonalEdgeStyle;rounded=0;orthogonalLoop=1;jettySize=auto;html=1;entryX=0;entryY=0.5;entryDx=10;entryDy=0;entryPerimeter=0;dashed=1;" parent="1" source="9ATQHFXJwovSWlaFd1BJ-48" target="9ATQHFXJwovSWlaFd1BJ-5" edge="1">
          <mxGeometry relative="1" as="geometry" />
        </mxCell>
        <mxCell id="9ATQHFXJwovSWlaFd1BJ-48" value="&lt;b&gt;Ungrammar Monaco&lt;/b&gt;" style="html=1;dropTarget=0;whiteSpace=wrap;" parent="1" vertex="1">
          <mxGeometry x="40" y="682.1471428571429" width="150" height="85.71428571428571" as="geometry" />
        </mxCell>
        <mxCell id="9ATQHFXJwovSWlaFd1BJ-49" value="" style="shape=module;jettyWidth=8;jettyHeight=4;" parent="9ATQHFXJwovSWlaFd1BJ-48" vertex="1">
          <mxGeometry x="1" width="20" height="20" relative="1" as="geometry">
            <mxPoint x="-27" y="7" as="offset" />
          </mxGeometry>
        </mxCell>
        <mxCell id="9ATQHFXJwovSWlaFd1BJ-53" style="edgeStyle=orthogonalEdgeStyle;rounded=0;orthogonalLoop=1;jettySize=auto;html=1;dashed=1;" parent="1" source="9ATQHFXJwovSWlaFd1BJ-50" target="9ATQHFXJwovSWlaFd1BJ-46" edge="1">
          <mxGeometry relative="1" as="geometry" />
        </mxCell>
        <mxCell id="9ATQHFXJwovSWlaFd1BJ-54" style="edgeStyle=orthogonalEdgeStyle;rounded=0;orthogonalLoop=1;jettySize=auto;html=1;dashed=1;" parent="1" source="9ATQHFXJwovSWlaFd1BJ-50" target="9ATQHFXJwovSWlaFd1BJ-48" edge="1">
          <mxGeometry relative="1" as="geometry" />
        </mxCell>
        <mxCell id="9ATQHFXJwovSWlaFd1BJ-50" value="&lt;b&gt;Ungrammar Online Demonstration Playground&lt;/b&gt;" style="html=1;dropTarget=0;whiteSpace=wrap;" parent="1" vertex="1">
          <mxGeometry x="40" y="230" width="150" height="110" as="geometry" />
        </mxCell>
        <mxCell id="9ATQHFXJwovSWlaFd1BJ-51" value="" style="shape=module;jettyWidth=8;jettyHeight=4;" parent="9ATQHFXJwovSWlaFd1BJ-50" vertex="1">
          <mxGeometry x="1" width="20" height="20" relative="1" as="geometry">
            <mxPoint x="-27" y="7" as="offset" />
          </mxGeometry>
        </mxCell>
        <mxCell id="9ATQHFXJwovSWlaFd1BJ-55" style="edgeStyle=orthogonalEdgeStyle;rounded=0;orthogonalLoop=1;jettySize=auto;html=1;dashed=1;" parent="1" source="9ATQHFXJwovSWlaFd1BJ-40" target="9ATQHFXJwovSWlaFd1BJ-36" edge="1">
          <mxGeometry relative="1" as="geometry" />
        </mxCell>
        <mxCell id="9ATQHFXJwovSWlaFd1BJ-56" style="edgeStyle=orthogonalEdgeStyle;rounded=0;orthogonalLoop=1;jettySize=auto;html=1;dashed=1;" parent="1" source="9ATQHFXJwovSWlaFd1BJ-36" target="9ATQHFXJwovSWlaFd1BJ-5" edge="1">
          <mxGeometry relative="1" as="geometry" />
        </mxCell>
      </root>
    </mxGraphModel>
  </diagram>
</mxfile>
